<?xml version="1.0" encoding="UTF-8" standalone="no"?>
<!-- Created with Inkscape (http://www.inkscape.org/) -->

<svg
   xmlns:dc="http://purl.org/dc/elements/1.1/"
   xmlns:cc="http://creativecommons.org/ns#"
   xmlns:rdf="http://www.w3.org/1999/02/22-rdf-syntax-ns#"
   xmlns:svg="http://www.w3.org/2000/svg"
   xmlns="http://www.w3.org/2000/svg"
   xmlns:sodipodi="http://sodipodi.sourceforge.net/DTD/sodipodi-0.dtd"
   xmlns:inkscape="http://www.inkscape.org/namespaces/inkscape"
   width="210mm"
   height="297mm"
   viewBox="0 0 210 297"
   version="1.1"
   id="svg8"
   inkscape:version="0.92.5 (2060ec1f9f, 2020-04-08)"
   sodipodi:docname="logo5.6.svg">
  <defs
     id="defs2">
    <filter
       inkscape:label="Evanescent"
       inkscape:menu="Blurs"
       inkscape:menu-tooltip="Blur the contents of objects, preserving the outline and adding progressive transparency at edges"
       style="color-interpolation-filters:sRGB;"
       id="filter885">
      <feGaussianBlur
         result="result6"
         stdDeviation="3"
         in="SourceGraphic"
         id="feGaussianBlur879" />
      <feColorMatrix
         values="1 0 0 0 0 0 1 0 0 0 0 0 1 0 0 0 0 0 1 0 "
         result="result7"
         in="SourceGraphic"
         id="feColorMatrix881" />
      <feComposite
         operator="in"
         in="result6"
         in2="result7"
         id="feComposite883" />
    </filter>
    <filter
       inkscape:label="Opacity"
       style="color-interpolation-filters:sRGB;"
       id="filter51">
      <feColorMatrix
         values="1 0 0 0 0 0 1 0 0 0 0 0 1 0 0 0 0 0 5 -1 "
         result="colormatrix"
         id="feColorMatrix47" />
      <feComposite
         in2="colormatrix"
         operator="arithmetic"
         k2="0.49"
         result="fbSourceGraphic"
         id="feComposite49" />
      <feColorMatrix
         result="fbSourceGraphicAlpha"
         in="fbSourceGraphic"
         values="0 0 0 -1 0 0 0 0 -1 0 0 0 0 -1 0 0 0 0 1 0"
         id="feColorMatrix53" />
      <feColorMatrix
         id="feColorMatrix55"
         values="1 0 0 0 0 0 1 0 0 0 0 0 1 0 0 0 0 0 5 -1 "
         result="colormatrix"
         in="fbSourceGraphic" />
      <feComposite
         in2="colormatrix"
         id="feComposite57"
         operator="arithmetic"
         k2="0.71"
         result="fbSourceGraphic" />
      <feColorMatrix
         result="fbSourceGraphicAlpha"
         in="fbSourceGraphic"
         values="0 0 0 -1 0 0 0 0 -1 0 0 0 0 -1 0 0 0 0 1 0"
         id="feColorMatrix59" />
      <feColorMatrix
         id="feColorMatrix61"
         values="1 0 0 0 0 0 1 0 0 0 0 0 1 0 0 0 0 0 5 -1 "
         result="colormatrix"
         in="fbSourceGraphic" />
      <feComposite
         in2="colormatrix"
         id="feComposite63"
         operator="arithmetic"
         k2="0.65"
         result="fbSourceGraphic" />
      <feColorMatrix
         result="fbSourceGraphicAlpha"
         in="fbSourceGraphic"
         values="0 0 0 -1 0 0 0 0 -1 0 0 0 0 -1 0 0 0 0 1 0"
         id="feColorMatrix65" />
      <feColorMatrix
         id="feColorMatrix67"
         values="1 0 0 0 0 0 1 0 0 0 0 0 1 0 0 0 0 0 5 -1 "
         result="colormatrix"
         in="fbSourceGraphic" />
      <feComposite
         in2="colormatrix"
         id="feComposite69"
         operator="arithmetic"
         k2="0.65"
         result="fbSourceGraphic" />
      <feColorMatrix
         result="fbSourceGraphicAlpha"
         in="fbSourceGraphic"
         values="0 0 0 -1 0 0 0 0 -1 0 0 0 0 -1 0 0 0 0 1 0"
         id="feColorMatrix71" />
      <feColorMatrix
         id="feColorMatrix73"
         values="1 0 0 0 0 0 1 0 0 0 0 0 1 0 0 0 0 0 5 -1 "
         result="colormatrix"
         in="fbSourceGraphic" />
      <feComposite
         in2="colormatrix"
         id="feComposite75"
         operator="arithmetic"
         k2="0.72"
         result="composite" />
    </filter>
  </defs>
  <sodipodi:namedview
     id="base"
     pagecolor="#ffffff"
     bordercolor="#666666"
     borderopacity="1.0"
     inkscape:pageopacity="0.0"
     inkscape:pageshadow="2"
     inkscape:zoom="0.35"
     inkscape:cx="85.433194"
     inkscape:cy="537.14286"
     inkscape:document-units="mm"
     inkscape:current-layer="layer1"
     showgrid="false"
     inkscape:window-width="1366"
     inkscape:window-height="704"
     inkscape:window-x="1183"
     inkscape:window-y="1107"
     inkscape:window-maximized="1" />
  <metadata
     id="metadata5">
    <rdf:RDF>
      <cc:Work
         rdf:about="">
        <dc:format>image/svg+xml</dc:format>
        <dc:type
           rdf:resource="http://purl.org/dc/dcmitype/StillImage" />
        <dc:title></dc:title>
      </cc:Work>
    </rdf:RDF>
  </metadata>
  <g
     inkscape:label="Calque 1"
     inkscape:groupmode="layer"
     id="layer1">
    <path
       id="path1095"
       d="m 3.211508,125.61997 c -1.00762,-0.38823 -1.944999,-1.07244 -2.323594,-1.69604 -1.20749,-1.98888 -0.273743,-3.95705 1.717696,-3.6206 l 0.76839,0.12982 -0.122915,-2.24222 c -0.0676,-1.23322 -0.179517,-3.46384 -0.248703,-4.95694 l -0.125789,-2.71471 0.644348,0.1378 c 0.354394,0.0758 1.154618,0.34933 1.778278,0.60787 3.802748,1.57643 5.93811,4.69079 5.726194,8.3515 -0.107148,1.85092 -0.625144,2.96772 -2.031902,4.38077 -1.627367,1.63464 -4.013239,2.30425 -5.782003,1.62275 z"
       style="fill:#e9afaf;fill-opacity:0;stroke-width:0.1889881"
       inkscape:connector-curvature="0" />
    <path
       id="path1097"
       d="m 3.211508,125.61997 c -1.00762,-0.38823 -1.944999,-1.07244 -2.323594,-1.69604 -1.20749,-1.98888 -0.273743,-3.95705 1.717696,-3.6206 l 0.76839,0.12982 -0.122915,-2.24222 c -0.0676,-1.23322 -0.179517,-3.46384 -0.248703,-4.95694 l -0.125789,-2.71471 0.644348,0.1378 c 0.354394,0.0758 1.154618,0.34933 1.778278,0.60787 3.802748,1.57643 5.93811,4.69079 5.726194,8.3515 -0.107148,1.85092 -0.625144,2.96772 -2.031902,4.38077 -1.627367,1.63464 -4.013239,2.30425 -5.782003,1.62275 z"
       style="fill:#e9afe7;fill-opacity:0;stroke-width:0.1889881"
       inkscape:connector-curvature="0" />
    <path
       id="path1099"
       d="m 3.211508,125.61997 c -1.00762,-0.38823 -1.944999,-1.07244 -2.323594,-1.69604 -1.20749,-1.98888 -0.273743,-3.95705 1.717696,-3.6206 l 0.76839,0.12982 -0.122915,-2.24222 c -0.0676,-1.23322 -0.179517,-3.46384 -0.248703,-4.95694 l -0.125789,-2.71471 0.644348,0.1378 c 0.354394,0.0758 1.154618,0.34933 1.778278,0.60787 3.802748,1.57643 5.93811,4.69079 5.726194,8.3515 -0.107148,1.85092 -0.625144,2.96772 -2.031902,4.38077 -1.627367,1.63464 -4.013239,2.30425 -5.782003,1.62275 z"
       style="fill:#e9afe7;fill-opacity:0;stroke-width:0.1889881"
       inkscape:connector-curvature="0" />
    <path
       id="path1101"
       d="m 3.211508,125.61997 c -1.00762,-0.38823 -1.944999,-1.07244 -2.323594,-1.69604 -1.20749,-1.98888 -0.273743,-3.95705 1.717696,-3.6206 l 0.76839,0.12982 -0.122915,-2.24222 c -0.0676,-1.23322 -0.179517,-3.46384 -0.248703,-4.95694 l -0.125789,-2.71471 0.644348,0.1378 c 0.354394,0.0758 1.154618,0.34933 1.778278,0.60787 3.802748,1.57643 5.93811,4.69079 5.726194,8.3515 -0.107148,1.85092 -0.625144,2.96772 -2.031902,4.38077 -1.627367,1.63464 -4.013239,2.30425 -5.782003,1.62275 z"
       style="fill:#eeafe7;fill-opacity:0;stroke-width:0.1889881"
       inkscape:connector-curvature="0" />
    <path
       id="path1103"
       d="m 3.211508,125.61997 c -1.00762,-0.38823 -1.944999,-1.07244 -2.323594,-1.69604 -1.20749,-1.98888 -0.273743,-3.95705 1.717696,-3.6206 l 0.76839,0.12982 -0.122915,-2.24222 c -0.0676,-1.23322 -0.179517,-3.46384 -0.248703,-4.95694 l -0.125789,-2.71471 0.644348,0.1378 c 0.354394,0.0758 1.154618,0.34933 1.778278,0.60787 3.802748,1.57643 5.93811,4.69079 5.726194,8.3515 -0.107148,1.85092 -0.625144,2.96772 -2.031902,4.38077 -1.627367,1.63464 -4.013239,2.30425 -5.782003,1.62275 z"
       style="fill:#eeafe7;fill-opacity:0;stroke-width:0.1889881"
       inkscape:connector-curvature="0" />
    <path
       id="path1105"
       d="m 1.731847,135.96829 c -5.738839,-1.28741 -10.222584,-5.3333 -11.534896,-10.40847 -0.487741,-1.88625 -0.406673,-5.00251 0.178313,-6.85432 1.518893,-4.80815 6.179553,-8.33194 11.020046,-8.33194 H 2.79815 L 2.674015,106.83004 C 2.605745,104.88109 2.498258,102.54032 2.43516,101.6283 l -0.114721,-1.658198 1.111414,0.113958 c 4.922867,0.50479 10.254541,3.11416 13.411502,6.56372 3.341428,3.65112 4.996804,7.82582 4.989041,12.58185 -0.0056,3.43746 -0.907425,6.37978 -2.841709,9.27157 -2.364952,3.53564 -5.799437,6.04787 -9.850025,7.205 -1.876753,0.53614 -5.600075,0.66785 -7.408815,0.26209 z M 6.204372,125.9675 c 1.379889,-0.35941 2.299967,-0.94596 3.395845,-2.16484 3.447536,-3.83449 1.719543,-9.94674 -3.530452,-12.48788 -0.851686,-0.41224 -1.959253,-0.80582 -2.461263,-0.87463 l -0.912743,-0.12511 0.126743,3.95076 c 0.06971,2.17292 0.17617,4.41851 0.236588,4.9902 0.09033,0.85473 0.06572,0.99746 -0.13848,0.8032 -0.585568,-0.55706 -2.049325,-0.0417 -2.53188,0.89151 -0.974217,1.88392 0.531751,4.34806 3.075858,5.03286 1.178308,0.31717 1.466905,0.31548 2.739784,-0.0161 z"
       style="fill:#eeafe7;fill-opacity:0;stroke-width:0.1889881"
       inkscape:connector-curvature="0" />
    <path
       id="path1107"
       d="m 3.211508,125.61997 c -1.00762,-0.38823 -1.944999,-1.07244 -2.323594,-1.69604 -1.20749,-1.98888 -0.273743,-3.95705 1.717696,-3.6206 l 0.76839,0.12982 -0.122915,-2.24222 c -0.0676,-1.23322 -0.179517,-3.46384 -0.248703,-4.95694 l -0.125789,-2.71471 0.644348,0.1378 c 0.354394,0.0758 1.154618,0.34933 1.778278,0.60787 3.802748,1.57643 5.93811,4.69079 5.726194,8.3515 -0.107148,1.85092 -0.625144,2.96772 -2.031902,4.38077 -1.627367,1.63464 -4.013239,2.30425 -5.782003,1.62275 z"
       style="fill:#eeafe7;fill-opacity:0;stroke-width:0.1889881"
       inkscape:connector-curvature="0" />
    <path
       id="path1109"
       d="m 1.731847,135.96829 c -5.738839,-1.28741 -10.222584,-5.3333 -11.534896,-10.40847 -0.487741,-1.88625 -0.406673,-5.00251 0.178313,-6.85432 1.518893,-4.80815 6.179553,-8.33194 11.020046,-8.33194 H 2.79815 L 2.674015,106.83004 C 2.605745,104.88109 2.498258,102.54032 2.43516,101.6283 l -0.114721,-1.658198 1.111414,0.113958 c 4.922867,0.50479 10.254541,3.11416 13.411502,6.56372 3.341428,3.65112 4.996804,7.82582 4.989041,12.58185 -0.0056,3.43746 -0.907425,6.37978 -2.841709,9.27157 -2.364952,3.53564 -5.799437,6.04787 -9.850025,7.205 -1.876753,0.53614 -5.600075,0.66785 -7.408815,0.26209 z M 6.204372,125.9675 c 1.379889,-0.35941 2.299967,-0.94596 3.395845,-2.16484 3.447536,-3.83449 1.719543,-9.94674 -3.530452,-12.48788 -0.851686,-0.41224 -1.959253,-0.80582 -2.461263,-0.87463 l -0.912743,-0.12511 0.126743,3.95076 c 0.06971,2.17292 0.17617,4.41851 0.236588,4.9902 0.09033,0.85473 0.06572,0.99746 -0.13848,0.8032 -0.585568,-0.55706 -2.049325,-0.0417 -2.53188,0.89151 -0.974217,1.88392 0.531751,4.34806 3.075858,5.03286 1.178308,0.31717 1.466905,0.31548 2.739784,-0.0161 z"
       style="fill:#eeafe7;fill-opacity:0;stroke-width:0.1889881"
       inkscape:connector-curvature="0" />
    <path
       id="path1111"
       d="m 3.211508,125.61997 c -1.00762,-0.38823 -1.944999,-1.07244 -2.323594,-1.69604 -1.20749,-1.98888 -0.273743,-3.95705 1.717696,-3.6206 l 0.76839,0.12982 -0.122915,-2.24222 c -0.0676,-1.23322 -0.179517,-3.46384 -0.248703,-4.95694 l -0.125789,-2.71471 0.644348,0.1378 c 0.354394,0.0758 1.154618,0.34933 1.778278,0.60787 3.802748,1.57643 5.93811,4.69079 5.726194,8.3515 -0.107148,1.85092 -0.625144,2.96772 -2.031902,4.38077 -1.627367,1.63464 -4.013239,2.30425 -5.782003,1.62275 z"
       style="fill:#de8787;fill-opacity:0;stroke-width:0.1889881"
       inkscape:connector-curvature="0" />
    <path
       id="path1113"
       d="m 3.211508,125.61997 c -1.00762,-0.38823 -1.944999,-1.07244 -2.323594,-1.69604 -1.20749,-1.98888 -0.273743,-3.95705 1.717696,-3.6206 l 0.76839,0.12982 -0.122915,-2.24222 c -0.0676,-1.23322 -0.179517,-3.46384 -0.248703,-4.95694 l -0.125789,-2.71471 0.644348,0.1378 c 0.354394,0.0758 1.154618,0.34933 1.778278,0.60787 3.802748,1.57643 5.93811,4.69079 5.726194,8.3515 -0.107148,1.85092 -0.625144,2.96772 -2.031902,4.38077 -1.627367,1.63464 -4.013239,2.30425 -5.782003,1.62275 z"
       style="fill:#de6ee9;fill-opacity:0;stroke-width:0.1889881"
       inkscape:connector-curvature="0" />
    <path
       id="path1115"
       d="m 3.211508,125.61997 c -1.00762,-0.38823 -1.944999,-1.07244 -2.323594,-1.69604 -1.20749,-1.98888 -0.273743,-3.95705 1.717696,-3.6206 l 0.76839,0.12982 -0.122915,-2.24222 c -0.0676,-1.23322 -0.179517,-3.46384 -0.248703,-4.95694 l -0.125789,-2.71471 0.644348,0.1378 c 0.354394,0.0758 1.154618,0.34933 1.778278,0.60787 3.802748,1.57643 5.93811,4.69079 5.726194,8.3515 -0.107148,1.85092 -0.625144,2.96772 -2.031902,4.38077 -1.627367,1.63464 -4.013239,2.30425 -5.782003,1.62275 z"
       style="fill:#de6ee9;fill-opacity:0;stroke-width:0.1889881"
       inkscape:connector-curvature="0" />
    <path
       id="path1117"
       d="m 1.731847,135.96829 c -5.738839,-1.28741 -10.222584,-5.3333 -11.534896,-10.40847 -0.487741,-1.88625 -0.406673,-5.00251 0.178313,-6.85432 1.518893,-4.80815 6.179553,-8.33194 11.020046,-8.33194 H 2.79815 L 2.674015,106.83004 C 2.605745,104.88109 2.498258,102.54032 2.43516,101.6283 l -0.114721,-1.658198 1.111414,0.113958 c 4.922867,0.50479 10.254541,3.11416 13.411502,6.56372 3.341428,3.65112 4.996804,7.82582 4.989041,12.58185 -0.0056,3.43746 -0.907425,6.37978 -2.841709,9.27157 -2.364952,3.53564 -5.799437,6.04787 -9.850025,7.205 -1.876753,0.53614 -5.600075,0.66785 -7.408815,0.26209 z M 6.204372,125.9675 c 1.379889,-0.35941 2.299967,-0.94596 3.395845,-2.16484 3.447536,-3.83449 1.719543,-9.94674 -3.530452,-12.48788 -0.851686,-0.41224 -1.959253,-0.80582 -2.461263,-0.87463 l -0.912743,-0.12511 0.126743,3.95076 c 0.06971,2.17292 0.17617,4.41851 0.236588,4.9902 0.09033,0.85473 0.06572,0.99746 -0.13848,0.8032 -0.585568,-0.55706 -2.049325,-0.0417 -2.53188,0.89151 -0.974217,1.88392 0.531751,4.34806 3.075858,5.03286 1.178308,0.31717 1.466905,0.31548 2.739784,-0.0161 z"
       style="fill:#de6ee9;fill-opacity:0;stroke-width:0.1889881"
       inkscape:connector-curvature="0" />
    <path
       id="path1119"
       d="m -0.181434,145.97062 c -3.433731,-0.72641 -7.350953,-2.42351 -10.110864,-4.38044 -1.730812,-1.22724 -4.564952,-4.01439 -5.895454,-5.79772 -0.6204,-0.83155 -1.588132,-2.4474 -2.150512,-3.59078 -1.803318,-3.66632 -2.482493,-6.92659 -2.283447,-10.9613 0.550074,-11.1502 9.502984,-20.12017 20.960953,-21.0009 1.573218,-0.12093 1.600507,-0.11569 1.708404,0.32814 0.06031,0.24807 0.16954,2.45849 0.242739,4.91206 l 0.133088,4.46102 -1.20796,0.13096 c -3.24131,0.35139 -5.538891,1.36488 -7.66363,3.38053 -1.582134,1.5009 -2.69776,3.14005 -3.307011,4.85887 -0.379743,1.07133 -0.43589,1.59095 -0.439052,4.06325 -0.0029,2.28179 0.06544,3.03759 0.350377,3.87425 1.340413,3.9358 4.61672,7.35329 8.662543,9.03582 4.102179,1.70596 9.181565,1.53336 13.325199,-0.45282 4.641252,-2.22469 8.404813,-6.96374 9.614863,-12.10698 0.388673,-1.65202 0.274283,-6.55934 -0.193185,-8.28777 -0.375515,-1.38844 -1.553025,-3.8954 -2.511229,-5.34649 -0.950222,-1.439 -3.410792,-3.98859 -4.950749,-5.12986 -2.723274,-2.01822 -6.620115,-3.6196 -9.626565,-3.95596 C 3.616932,99.908273 2.868915,99.785272 2.814816,99.731173 2.619363,99.53572 2.396375,96.977535 2.263985,93.41188 l -0.135078,-3.63802 0.545722,0.0035 c 0.819655,0.0052 4.235379,0.512966 5.690015,0.845851 9.530607,2.181032 17.454063,8.425699 21.480688,16.929439 0.562398,1.18772 1.265242,2.88237 1.561875,3.76588 l 0.539334,1.6064 v 6.14212 6.14211 l -0.637654,1.79539 c -0.812125,2.28662 -2.227566,5.12877 -3.576547,7.18154 -1.42666,2.17099 -5.255869,5.97691 -7.56549,7.51949 -3.220525,2.15096 -7.824857,3.9851 -10.988416,4.37724 -2.342634,0.29039 -7.764124,0.22541 -9.359868,-0.11217 z"
       style="fill:#de6ee9;fill-opacity:0;stroke-width:0.1889881"
       inkscape:connector-curvature="0" />
    <path
       id="path1121"
       d="m -1.078729,153.66628 c -8.521787,-1.85652 -14.230588,-4.93583 -19.708868,-10.63091 -3.077969,-3.19977 -4.805666,-5.69682 -6.711219,-9.69976 -1.871179,-3.93072 -2.659798,-6.85012 -3.006691,-11.13049 -0.526195,-6.4928 -0.04172,-10.60397 1.897115,-16.09873 0.473946,-1.34318 1.891737,-4.4707 2.163456,-4.77238 0.03102,-0.0344 0.709385,0.38237 1.507482,0.92625 5.573519,3.79821 12.856578,2.52098 16.47516,-2.889251 1.382506,-2.067018 1.621377,-3.01928 1.542624,-6.1497 -0.0623,-2.476196 -0.09412,-2.657792 -0.684189,-3.903808 -0.340368,-0.718743 -0.914419,-1.718215 -1.27567,-2.221047 -0.361249,-0.502833 -0.656815,-0.988619 -0.656815,-1.079521 0,-0.460016 4.964925,-2.071495 8.598958,-2.790989 2.463938,-0.487829 9.982081,-0.484733 12.662202,0.0052 10.080786,1.842854 19.329521,8.205184 24.54421,16.884296 1.193837,1.98697 2.880934,5.71091 3.577103,7.89575 0.920509,2.8889 1.27563,5.14317 1.399275,8.88244 0.165301,4.99898 -0.382624,9.24487 -1.660115,12.86427 -0.570491,1.61632 -2.369991,5.73372 -2.621928,5.99918 -0.08019,0.0845 -0.658746,0.0207 -1.285676,-0.14174 -4.399497,-1.14002 -9.033436,0.87314 -10.953822,4.75877 -0.63723,1.28936 -0.710535,1.59738 -0.777618,3.26749 -0.06116,1.52281 0.0016,2.09945 0.361471,3.31104 l 0.435533,1.46709 -0.62676,0.52325 c -0.731094,0.61034 -4.845095,2.51793 -7.267745,3.36992 -0.923803,0.32488 -2.70974,0.80958 -3.96875,1.07711 -2.051195,0.43586 -2.809618,0.49421 -7.297292,0.56142 -4.403879,0.066 -5.207672,0.0316 -6.661431,-0.28516 z m 11.311305,-7.3692 c 5.676432,-1.15838 10.020861,-3.52351 14.252014,-7.75886 2.648707,-2.65134 4.226068,-4.83426 5.659255,-7.83188 1.999753,-4.18262 2.464565,-6.31522 2.463041,-11.30063 -0.0019,-5.75928 -0.540647,-8.24434 -2.757784,-12.71742 C 26.283558,99.494805 19.15662,93.461654 11.252344,90.945625 8.545572,90.084025 4.537738,89.395884 2.226436,89.395884 H 1.745034 l 0.128315,3.921503 c 0.07058,2.156825 0.179689,4.446164 0.242477,5.087419 l 0.11416,1.165916 -0.827736,0.09671 c -0.455252,0.05319 -1.606674,0.188146 -2.558713,0.299895 -8.683027,1.019203 -16.153363,7.288413 -18.975501,15.924483 -0.933435,2.85642 -1.168858,7.60927 -0.54427,10.98799 0.857145,4.63671 3.943898,9.83281 7.891341,13.2839 4.387144,3.83551 9.010499,5.84054 15.154799,6.57226 1.559912,0.18577 6.022239,-0.0633 7.86267,-0.43889 z"
       style="fill:#de6ee9;fill-opacity:0;stroke-width:0.1889881"
       inkscape:connector-curvature="0" />
    <ellipse
       ry="0.62923723"
       rx="0.31461862"
       cy="152.15277"
       cx="34.051094"
       id="path3851"
       style="fill:none;fill-opacity:1;stroke-width:0.26458332" />
    <text
       id="text872"
       y="124.62363"
       x="12.971646"
       style="font-style:normal;font-variant:normal;font-weight:normal;font-stretch:normal;font-size:10.58333302px;line-height:1.25;font-family:Ubuntu;-inkscape-font-specification:Ubuntu;letter-spacing:0px;word-spacing:0px;fill:#000000;fill-opacity:1;stroke:none;stroke-width:0.26458332"
       xml:space="preserve"><tspan
         style="font-style:normal;font-variant:normal;font-weight:normal;font-stretch:normal;font-family:Ubuntu;-inkscape-font-specification:Ubuntu;stroke-width:0.26458332"
         y="124.62363"
         x="12.971646"
         id="tspan870"
         sodipodi:role="line">   </tspan></text>
    <text
       id="text876"
       y="117.67001"
       x="-24.674622"
       style="font-style:normal;font-variant:normal;font-weight:normal;font-stretch:normal;font-size:10.58333302px;line-height:1.25;font-family:Z003;-inkscape-font-specification:Z003;letter-spacing:0px;word-spacing:0px;fill:#000000;fill-opacity:1;stroke:none;stroke-width:0.26458332"
       xml:space="preserve"><tspan
         style="stroke-width:0.26458332"
         y="126.15784"
         x="-24.674622"
         id="tspan874"
         sodipodi:role="line" /></text>
    <g
       id="g133">
      <g
         style="filter:url(#filter51)"
         transform="translate(392.33929,10.583333)"
         id="g908">
        <g
           id="g1058"
           style="fill:#e9d37e;fill-opacity:1;stroke:none;filter:url(#filter885)"
           transform="matrix(1.4849822,0,0,1.433991,-591.04881,-63.769968)">
          <ellipse
             ry="50.514"
             rx="50.544998"
             cy="136.37102"
             cx="193.77042"
             id="path949"
             style="fill:#e9d37e;fill-opacity:1;stroke:none;stroke-width:0.31458959;stroke-miterlimit:4;stroke-dasharray:none;stroke-opacity:1" />
        </g>
      </g>
      <text
         transform="scale(1.1041321,0.90568874)"
         xml:space="preserve"
         style="font-style:normal;font-variant:normal;font-weight:normal;font-stretch:normal;font-size:52.00011826px;line-height:1.25;font-family:'Ubuntu Condensed';-inkscape-font-specification:'Ubuntu Condensed, ';letter-spacing:0px;word-spacing:0px;fill:#f462c5;fill-opacity:1;stroke:none;stroke-width:0.97500181"
         x="-0.0086432463"
         y="135.73619"
         id="text880"><tspan
           sodipodi:role="line"
           id="tspan878"
           x="-0.0086432463"
           y="135.73619"
           style="font-style:normal;font-variant:normal;font-weight:normal;font-stretch:normal;font-size:52.00011826px;font-family:'Ubuntu Condensed';-inkscape-font-specification:'Ubuntu Condensed, ';fill:#f462c5;fill-opacity:1;stroke-width:0.97500181">Miz</tspan></text>
      <path
         inkscape:connector-curvature="0"
         id="path1016"
         d="m 72.44575,185.7668 c -16.4239,-3.64352 -29.05067,-16.25268 -30.41482,-30.37239 -1.17006,-12.11089 4.81795,-22.76528 15.95724,-28.39264 6.24343,-3.15403 14.97017,-5.02028 16.52985,-3.53501 0.51218,0.48781 1.3102,5.75017 1.77333,11.69428 l 0.84209,10.80736 -3.75487,0.69785 c -7.13642,1.32627 -6.1841,10.24776 1.48739,13.93413 2.36656,1.13722 5.43765,1.52296 9.08402,1.14104 4.45598,-0.46672 6.3705,-1.43538 10.01738,-5.06839 5.29733,-5.27716 6.83069,-10.85767 4.75362,-17.2998 -2.03996,-6.32701 -8.92327,-12.95632 -15.81412,-15.23059 l -5.75385,-1.89898 -0.65781,-11.89161 c -0.36182,-6.54041 -0.41697,-12.1194 -0.12266,-12.39772 0.29438,-0.27832 3.6521,0.0984 7.46157,0.83683 33.02668,6.40335 52.53924,38.5234 38.76002,63.80365 -9.50043,17.43009 -31.0812,27.40182 -50.14843,23.17199 z"
         style="fill:#2194e2;fill-opacity:1;stroke:none;stroke-width:1.38859308;stroke-miterlimit:4;stroke-dasharray:none;stroke-opacity:1" />
      <text
         transform="scale(1.1420875,0.87558965)"
         xml:space="preserve"
         style="font-style:normal;font-variant:normal;font-weight:normal;font-stretch:normal;font-size:63.34188461px;line-height:1.25;font-family:'Ubuntu Condensed';-inkscape-font-specification:'Ubuntu Condensed, ';letter-spacing:0px;word-spacing:0px;fill:#2194e2;fill-opacity:1;stroke:none;stroke-width:1.18766034"
         x="111.52352"
         y="188.74037"
         id="text884"><tspan
           sodipodi:role="line"
           id="tspan882"
           x="111.52352"
           y="188.74037"
           style="font-style:normal;font-variant:normal;font-weight:normal;font-stretch:normal;font-size:63.34188461px;font-family:'Ubuntu Condensed';-inkscape-font-specification:'Ubuntu Condensed, ';fill:#2194e2;fill-opacity:1;stroke-width:1.18766034">ara</tspan></text>
    </g>
  </g>
</svg>
